<?xml version="1.0" encoding="UTF-8" standalone="no"?><svg xmlns="http://www.w3.org/2000/svg" xmlns:xlink="http://www.w3.org/1999/xlink" contentScriptType="application/ecmascript" contentStyleType="text/css" height="307px" preserveAspectRatio="none" style="width:253px;height:307px;" version="1.1" viewBox="0 0 253 307" width="253px" zoomAndPan="magnify"><defs><filter height="300%" id="fx5y5qyg4iik7" width="300%" x="-1" y="-1"><feGaussianBlur result="blurOut" stdDeviation="2.0"/><feColorMatrix in="blurOut" result="blurOut2" type="matrix" values="0 0 0 0 0 0 0 0 0 0 0 0 0 0 0 0 0 0 .4 0"/><feOffset dx="4.0" dy="4.0" in="blurOut2" result="blurOut3"/><feBlend in="SourceGraphic" in2="blurOut3" mode="normal"/></filter></defs><g><line style="stroke: #A80036; stroke-width: 1.0; stroke-dasharray: 5.0,5.0;" x1="38" x2="38" y1="89.0679" y2="217.186"/><line style="stroke: #A80036; stroke-width: 1.0; stroke-dasharray: 5.0,5.0;" x1="161" x2="161" y1="89.0679" y2="217.186"/><text fill="#000000" font-family="sans-serif" font-size="14" lengthAdjust="spacingAndGlyphs" textLength="55" x="8" y="84.9659">Browser</text><ellipse cx="38.5" cy="13" fill="#FEFECE" filter="url(#fx5y5qyg4iik7)" rx="8" ry="8" style="stroke: #A80036; stroke-width: 2.0;"/><path d="M38.5,21 L38.5,48 M25.5,29 L51.5,29 M38.5,48 L25.5,63 M38.5,48 L51.5,63 " fill="none" filter="url(#fx5y5qyg4iik7)" style="stroke: #A80036; stroke-width: 2.0;"/><text fill="#000000" font-family="sans-serif" font-size="14" lengthAdjust="spacingAndGlyphs" textLength="55" x="8" y="231.1519">Browser</text><ellipse cx="38.5" cy="245.2539" fill="#FEFECE" filter="url(#fx5y5qyg4iik7)" rx="8" ry="8" style="stroke: #A80036; stroke-width: 2.0;"/><path d="M38.5,253.2539 L38.5,280.2539 M25.5,261.2539 L51.5,261.2539 M38.5,280.2539 L25.5,295.2539 M38.5,280.2539 L51.5,295.2539 " fill="none" filter="url(#fx5y5qyg4iik7)" style="stroke: #A80036; stroke-width: 2.0;"/><rect fill="#FEFECE" filter="url(#fx5y5qyg4iik7)" height="33.0679" style="stroke: #A80036; stroke-width: 1.5;" width="57" x="131" y="51"/><text fill="#000000" font-family="sans-serif" font-size="14" lengthAdjust="spacingAndGlyphs" textLength="43" x="138" y="72.9659">Server</text><rect fill="#FEFECE" filter="url(#fx5y5qyg4iik7)" height="33.0679" style="stroke: #A80036; stroke-width: 1.5;" width="57" x="131" y="216.186"/><text fill="#000000" font-family="sans-serif" font-size="14" lengthAdjust="spacingAndGlyphs" textLength="43" x="138" y="238.1519">Server</text><polygon fill="#A80036" points="149.5,118.7739,159.5,122.7739,149.5,126.7739,153.5,122.7739" style="stroke: #A80036; stroke-width: 1.0;"/><line style="stroke: #A80036; stroke-width: 1.0;" x1="38.5" x2="155.5" y1="122.7739" y2="122.7739"/><text fill="#000000" font-family="sans-serif" font-size="13" lengthAdjust="spacingAndGlyphs" textLength="64" x="45.5" y="116.9649">GET /index</text><line style="stroke: #A80036; stroke-width: 1.0;" x1="161.5" x2="203.5" y1="154.4799" y2="154.4799"/><line style="stroke: #A80036; stroke-width: 1.0;" x1="203.5" x2="203.5" y1="154.4799" y2="167.4799"/><line style="stroke: #A80036; stroke-width: 1.0;" x1="162.5" x2="203.5" y1="167.4799" y2="167.4799"/><polygon fill="#A80036" points="172.5,163.4799,162.5,167.4799,172.5,171.4799,168.5,167.4799" style="stroke: #A80036; stroke-width: 1.0;"/><text fill="#000000" font-family="sans-serif" font-size="13" lengthAdjust="spacingAndGlyphs" textLength="73" x="168.5" y="148.6709">parse_http()</text><polygon fill="#A80036" points="49.5,195.186,39.5,199.186,49.5,203.186,45.5,199.186" style="stroke: #A80036; stroke-width: 1.0;"/><line style="stroke: #A80036; stroke-width: 1.0;" x1="43.5" x2="160.5" y1="199.186" y2="199.186"/><text fill="#000000" font-family="sans-serif" font-size="13" lengthAdjust="spacingAndGlyphs" textLength="99" x="55.5" y="193.377">HTTP/1.1 200 OK</text><!--MD5=[edfb59cbb5ea4c9bd3ef81cd49dafaea]
@startuml
actor Browser
Browser -> Server : GET /index
Server -> Server : parse_http()
Server -> Browser : HTTP/1.1 200 OK
@enduml

PlantUML version 1.2020.02(Sun Mar 01 11:22:07 CET 2020)
(GPL source distribution)
Java Runtime: OpenJDK Runtime Environment
JVM: OpenJDK 64-Bit Server VM
Java Version: 21.0.9+10-Ubuntu-124.04
Operating System: Linux
Default Encoding: UTF-8
Language: en
Country: US
--></g></svg>