<?xml version="1.0" encoding="UTF-8" standalone="no"?><svg xmlns="http://www.w3.org/2000/svg" xmlns:xlink="http://www.w3.org/1999/xlink" contentScriptType="application/ecmascript" contentStyleType="text/css" height="325px" preserveAspectRatio="none" style="width:316px;height:325px;" version="1.1" viewBox="0 0 316 325" width="316px" zoomAndPan="magnify"><defs><filter height="300%" id="f1aaad4irn8qeq" width="300%" x="-1" y="-1"><feGaussianBlur result="blurOut" stdDeviation="2.0"/><feColorMatrix in="blurOut" result="blurOut2" type="matrix" values="0 0 0 0 0 0 0 0 0 0 0 0 0 0 0 0 0 0 .4 0"/><feOffset dx="4.0" dy="4.0" in="blurOut2" result="blurOut3"/><feBlend in="SourceGraphic" in2="blurOut3" mode="normal"/></filter></defs><g><line style="stroke: #A80036; stroke-width: 1.0; stroke-dasharray: 5.0,5.0;" x1="30" x2="30" y1="89.0679" y2="235.892"/><line style="stroke: #A80036; stroke-width: 1.0; stroke-dasharray: 5.0,5.0;" x1="114" x2="114" y1="89.0679" y2="235.892"/><line style="stroke: #A80036; stroke-width: 1.0; stroke-dasharray: 5.0,5.0;" x1="201" x2="201" y1="89.0679" y2="235.892"/><line style="stroke: #A80036; stroke-width: 1.0; stroke-dasharray: 5.0,5.0;" x1="276.5" x2="276.5" y1="89.0679" y2="235.892"/><text fill="#000000" font-family="sans-serif" font-size="14" lengthAdjust="spacingAndGlyphs" textLength="39" x="8" y="84.9659">Client</text><ellipse cx="30.5" cy="13" fill="#FEFECE" filter="url(#f1aaad4irn8qeq)" rx="8" ry="8" style="stroke: #A80036; stroke-width: 2.0;"/><path d="M30.5,21 L30.5,48 M17.5,29 L43.5,29 M30.5,48 L17.5,63 M30.5,48 L43.5,63 " fill="none" filter="url(#f1aaad4irn8qeq)" style="stroke: #A80036; stroke-width: 2.0;"/><text fill="#000000" font-family="sans-serif" font-size="14" lengthAdjust="spacingAndGlyphs" textLength="39" x="8" y="249.8579">Client</text><ellipse cx="30.5" cy="263.9599" fill="#FEFECE" filter="url(#f1aaad4irn8qeq)" rx="8" ry="8" style="stroke: #A80036; stroke-width: 2.0;"/><path d="M30.5,271.9599 L30.5,298.9599 M17.5,279.9599 L43.5,279.9599 M30.5,298.9599 L17.5,313.9599 M30.5,298.9599 L43.5,313.9599 " fill="none" filter="url(#f1aaad4irn8qeq)" style="stroke: #A80036; stroke-width: 2.0;"/><rect fill="#FEFECE" filter="url(#f1aaad4irn8qeq)" height="33.0679" style="stroke: #A80036; stroke-width: 1.5;" width="87" x="69" y="51"/><text fill="#000000" font-family="sans-serif" font-size="14" lengthAdjust="spacingAndGlyphs" textLength="73" x="76" y="72.9659">Dispatcher</text><rect fill="#FEFECE" filter="url(#f1aaad4irn8qeq)" height="33.0679" style="stroke: #A80036; stroke-width: 1.5;" width="87" x="69" y="234.892"/><text fill="#000000" font-family="sans-serif" font-size="14" lengthAdjust="spacingAndGlyphs" textLength="73" x="76" y="256.8579">Dispatcher</text><rect fill="#FEFECE" filter="url(#f1aaad4irn8qeq)" height="33.0679" style="stroke: #A80036; stroke-width: 1.5;" width="59" x="170" y="51"/><text fill="#000000" font-family="sans-serif" font-size="14" lengthAdjust="spacingAndGlyphs" textLength="45" x="177" y="72.9659">Queue</text><rect fill="#FEFECE" filter="url(#f1aaad4irn8qeq)" height="33.0679" style="stroke: #A80036; stroke-width: 1.5;" width="59" x="170" y="234.892"/><text fill="#000000" font-family="sans-serif" font-size="14" lengthAdjust="spacingAndGlyphs" textLength="45" x="177" y="256.8579">Queue</text><rect fill="#FEFECE" filter="url(#f1aaad4irn8qeq)" height="33.0679" style="stroke: #A80036; stroke-width: 1.5;" width="62" x="243.5" y="51"/><text fill="#000000" font-family="sans-serif" font-size="14" lengthAdjust="spacingAndGlyphs" textLength="48" x="250.5" y="72.9659">Worker</text><rect fill="#FEFECE" filter="url(#f1aaad4irn8qeq)" height="33.0679" style="stroke: #A80036; stroke-width: 1.5;" width="62" x="243.5" y="234.892"/><text fill="#000000" font-family="sans-serif" font-size="14" lengthAdjust="spacingAndGlyphs" textLength="48" x="250.5" y="256.8579">Worker</text><polygon fill="#A80036" points="102.5,118.7739,112.5,122.7739,102.5,126.7739,106.5,122.7739" style="stroke: #A80036; stroke-width: 1.0;"/><line style="stroke: #A80036; stroke-width: 1.0;" x1="30.5" x2="108.5" y1="122.7739" y2="122.7739"/><text fill="#000000" font-family="sans-serif" font-size="13" lengthAdjust="spacingAndGlyphs" textLength="60" x="37.5" y="116.9649">CONNECT</text><polygon fill="#A80036" points="189.5,150.4799,199.5,154.4799,189.5,158.4799,193.5,154.4799" style="stroke: #A80036; stroke-width: 1.0;"/><line style="stroke: #A80036; stroke-width: 1.0;" x1="114.5" x2="195.5" y1="154.4799" y2="154.4799"/><text fill="#000000" font-family="sans-serif" font-size="13" lengthAdjust="spacingAndGlyphs" textLength="57" x="121.5" y="148.6709">push(job)</text><polygon fill="#A80036" points="212.5,182.186,202.5,186.186,212.5,190.186,208.5,186.186" style="stroke: #A80036; stroke-width: 1.0;"/><line style="stroke: #A80036; stroke-width: 1.0;" x1="206.5" x2="275.5" y1="186.186" y2="186.186"/><text fill="#000000" font-family="sans-serif" font-size="13" lengthAdjust="spacingAndGlyphs" textLength="51" x="218.5" y="180.377">pop(job)</text><polygon fill="#A80036" points="41.5,213.892,31.5,217.892,41.5,221.892,37.5,217.892" style="stroke: #A80036; stroke-width: 1.0;"/><line style="stroke: #A80036; stroke-width: 1.0;" x1="35.5" x2="275.5" y1="217.892" y2="217.892"/><text fill="#000000" font-family="sans-serif" font-size="13" lengthAdjust="spacingAndGlyphs" textLength="49" x="47.5" y="212.083">réponse</text><!--MD5=[e1006ff3378d156775de34296572957c]
@startuml
actor Client
Client -> Dispatcher : CONNECT
Dispatcher -> Queue : push(job)
Worker -> Queue : pop(job)
Worker -> Client : réponse
@enduml

PlantUML version 1.2020.02(Sun Mar 01 11:22:07 CET 2020)
(GPL source distribution)
Java Runtime: OpenJDK Runtime Environment
JVM: OpenJDK 64-Bit Server VM
Java Version: 21.0.9+10-Ubuntu-124.04
Operating System: Linux
Default Encoding: UTF-8
Language: en
Country: US
--></g></svg>