<?xml version="1.0" encoding="UTF-8" standalone="no"?><svg xmlns="http://www.w3.org/2000/svg" xmlns:xlink="http://www.w3.org/1999/xlink" contentScriptType="application/ecmascript" contentStyleType="text/css" height="421px" preserveAspectRatio="none" style="width:567px;height:421px;" version="1.1" viewBox="0 0 567 421" width="567px" zoomAndPan="magnify"><defs><filter height="300%" id="fzhch03iqe8ar" width="300%" x="-1" y="-1"><feGaussianBlur result="blurOut" stdDeviation="2.0"/><feColorMatrix in="blurOut" result="blurOut2" type="matrix" values="0 0 0 0 0 0 0 0 0 0 0 0 0 0 0 0 0 0 .4 0"/><feOffset dx="4.0" dy="4.0" in="blurOut2" result="blurOut3"/><feBlend in="SourceGraphic" in2="blurOut3" mode="normal"/></filter></defs><g><line style="stroke: #A80036; stroke-width: 1.0; stroke-dasharray: 5.0,5.0;" x1="38" x2="38" y1="89.0679" y2="331.01"/><line style="stroke: #A80036; stroke-width: 1.0; stroke-dasharray: 5.0,5.0;" x1="124" x2="124" y1="89.0679" y2="331.01"/><line style="stroke: #A80036; stroke-width: 1.0; stroke-dasharray: 5.0,5.0;" x1="211" x2="211" y1="89.0679" y2="331.01"/><line style="stroke: #A80036; stroke-width: 1.0; stroke-dasharray: 5.0,5.0;" x1="286.5" x2="286.5" y1="89.0679" y2="331.01"/><line style="stroke: #A80036; stroke-width: 1.0; stroke-dasharray: 5.0,5.0;" x1="435" x2="435" y1="89.0679" y2="331.01"/><line style="stroke: #A80036; stroke-width: 1.0; stroke-dasharray: 5.0,5.0;" x1="528" x2="528" y1="89.0679" y2="331.01"/><text fill="#000000" font-family="sans-serif" font-size="14" lengthAdjust="spacingAndGlyphs" textLength="55" x="8" y="84.9659">Browser</text><ellipse cx="38.5" cy="13" fill="#FEFECE" filter="url(#fzhch03iqe8ar)" rx="8" ry="8" style="stroke: #A80036; stroke-width: 2.0;"/><path d="M38.5,21 L38.5,48 M25.5,29 L51.5,29 M38.5,48 L25.5,63 M38.5,48 L51.5,63 " fill="none" filter="url(#fzhch03iqe8ar)" style="stroke: #A80036; stroke-width: 2.0;"/><text fill="#000000" font-family="sans-serif" font-size="14" lengthAdjust="spacingAndGlyphs" textLength="55" x="8" y="344.976">Browser</text><ellipse cx="38.5" cy="359.0779" fill="#FEFECE" filter="url(#fzhch03iqe8ar)" rx="8" ry="8" style="stroke: #A80036; stroke-width: 2.0;"/><path d="M38.5,367.0779 L38.5,394.0779 M25.5,375.0779 L51.5,375.0779 M38.5,394.0779 L25.5,409.0779 M38.5,394.0779 L51.5,409.0779 " fill="none" filter="url(#fzhch03iqe8ar)" style="stroke: #A80036; stroke-width: 2.0;"/><rect fill="#FEFECE" filter="url(#fzhch03iqe8ar)" height="33.0679" style="stroke: #A80036; stroke-width: 1.5;" width="87" x="79" y="51"/><text fill="#000000" font-family="sans-serif" font-size="14" lengthAdjust="spacingAndGlyphs" textLength="73" x="86" y="72.9659">Dispatcher</text><rect fill="#FEFECE" filter="url(#fzhch03iqe8ar)" height="33.0679" style="stroke: #A80036; stroke-width: 1.5;" width="87" x="79" y="330.01"/><text fill="#000000" font-family="sans-serif" font-size="14" lengthAdjust="spacingAndGlyphs" textLength="73" x="86" y="351.976">Dispatcher</text><rect fill="#FEFECE" filter="url(#fzhch03iqe8ar)" height="33.0679" style="stroke: #A80036; stroke-width: 1.5;" width="59" x="180" y="51"/><text fill="#000000" font-family="sans-serif" font-size="14" lengthAdjust="spacingAndGlyphs" textLength="45" x="187" y="72.9659">Queue</text><rect fill="#FEFECE" filter="url(#fzhch03iqe8ar)" height="33.0679" style="stroke: #A80036; stroke-width: 1.5;" width="59" x="180" y="330.01"/><text fill="#000000" font-family="sans-serif" font-size="14" lengthAdjust="spacingAndGlyphs" textLength="45" x="187" y="351.976">Queue</text><rect fill="#FEFECE" filter="url(#fzhch03iqe8ar)" height="33.0679" style="stroke: #A80036; stroke-width: 1.5;" width="62" x="253.5" y="51"/><text fill="#000000" font-family="sans-serif" font-size="14" lengthAdjust="spacingAndGlyphs" textLength="48" x="260.5" y="72.9659">Worker</text><rect fill="#FEFECE" filter="url(#fzhch03iqe8ar)" height="33.0679" style="stroke: #A80036; stroke-width: 1.5;" width="62" x="253.5" y="330.01"/><text fill="#000000" font-family="sans-serif" font-size="14" lengthAdjust="spacingAndGlyphs" textLength="48" x="260.5" y="351.976">Worker</text><rect fill="#FEFECE" filter="url(#fzhch03iqe8ar)" height="33.0679" style="stroke: #A80036; stroke-width: 1.5;" width="57" x="405" y="51"/><text fill="#000000" font-family="sans-serif" font-size="14" lengthAdjust="spacingAndGlyphs" textLength="43" x="412" y="72.9659">Parser</text><rect fill="#FEFECE" filter="url(#fzhch03iqe8ar)" height="33.0679" style="stroke: #A80036; stroke-width: 1.5;" width="57" x="405" y="330.01"/><text fill="#000000" font-family="sans-serif" font-size="14" lengthAdjust="spacingAndGlyphs" textLength="43" x="412" y="351.976">Parser</text><rect fill="#FEFECE" filter="url(#fzhch03iqe8ar)" height="33.0679" style="stroke: #A80036; stroke-width: 1.5;" width="59" x="497" y="51"/><text fill="#000000" font-family="sans-serif" font-size="14" lengthAdjust="spacingAndGlyphs" textLength="45" x="504" y="72.9659">Router</text><rect fill="#FEFECE" filter="url(#fzhch03iqe8ar)" height="33.0679" style="stroke: #A80036; stroke-width: 1.5;" width="59" x="497" y="330.01"/><text fill="#000000" font-family="sans-serif" font-size="14" lengthAdjust="spacingAndGlyphs" textLength="45" x="504" y="351.976">Router</text><polygon fill="#A80036" points="112.5,118.7739,122.5,122.7739,112.5,126.7739,116.5,122.7739" style="stroke: #A80036; stroke-width: 1.0;"/><line style="stroke: #A80036; stroke-width: 1.0;" x1="38.5" x2="118.5" y1="122.7739" y2="122.7739"/><text fill="#000000" font-family="sans-serif" font-size="13" lengthAdjust="spacingAndGlyphs" textLength="60" x="45.5" y="116.9649">GET /hello</text><polygon fill="#A80036" points="199.5,150.4799,209.5,154.4799,199.5,158.4799,203.5,154.4799" style="stroke: #A80036; stroke-width: 1.0;"/><line style="stroke: #A80036; stroke-width: 1.0;" x1="124.5" x2="205.5" y1="154.4799" y2="154.4799"/><text fill="#000000" font-family="sans-serif" font-size="13" lengthAdjust="spacingAndGlyphs" textLength="57" x="131.5" y="148.6709">push(job)</text><polygon fill="#A80036" points="222.5,182.186,212.5,186.186,222.5,190.186,218.5,186.186" style="stroke: #A80036; stroke-width: 1.0;"/><line style="stroke: #A80036; stroke-width: 1.0;" x1="216.5" x2="285.5" y1="186.186" y2="186.186"/><text fill="#000000" font-family="sans-serif" font-size="13" lengthAdjust="spacingAndGlyphs" textLength="51" x="228.5" y="180.377">pop(job)</text><polygon fill="#A80036" points="423.5,213.892,433.5,217.892,423.5,221.892,427.5,217.892" style="stroke: #A80036; stroke-width: 1.0;"/><line style="stroke: #A80036; stroke-width: 1.0;" x1="286.5" x2="429.5" y1="217.892" y2="217.892"/><text fill="#000000" font-family="sans-serif" font-size="13" lengthAdjust="spacingAndGlyphs" textLength="125" x="293.5" y="212.083">parse_http_request()</text><polygon fill="#A80036" points="516.5,245.598,526.5,249.598,516.5,253.598,520.5,249.598" style="stroke: #A80036; stroke-width: 1.0;"/><line style="stroke: #A80036; stroke-width: 1.0;" x1="435.5" x2="522.5" y1="249.598" y2="249.598"/><text fill="#000000" font-family="sans-serif" font-size="13" lengthAdjust="spacingAndGlyphs" textLength="69" x="442.5" y="243.789">route(path)</text><polygon fill="#A80036" points="297.5,277.304,287.5,281.304,297.5,285.304,293.5,281.304" style="stroke: #A80036; stroke-width: 1.0;"/><line style="stroke: #A80036; stroke-width: 1.0;" x1="291.5" x2="527.5" y1="281.304" y2="281.304"/><text fill="#000000" font-family="sans-serif" font-size="13" lengthAdjust="spacingAndGlyphs" textLength="123" x="303.5" y="275.495">generate_response()</text><polygon fill="#A80036" points="49.5,309.01,39.5,313.01,49.5,317.01,45.5,313.01" style="stroke: #A80036; stroke-width: 1.0;"/><line style="stroke: #A80036; stroke-width: 1.0;" x1="43.5" x2="285.5" y1="313.01" y2="313.01"/><text fill="#000000" font-family="sans-serif" font-size="13" lengthAdjust="spacingAndGlyphs" textLength="99" x="55.5" y="307.201">HTTP/1.1 200 OK</text><!--MD5=[cdabbaf9bf3e562eaba1fce5c193620a]
@startuml
actor Browser
Browser -> Dispatcher : GET /hello
Dispatcher -> Queue : push(job)
Worker -> Queue : pop(job)
Worker -> Parser : parse_http_request()
Parser -> Router : route(path)
Router -> Worker : generate_response()
Worker -> Browser : HTTP/1.1 200 OK
@enduml

PlantUML version 1.2020.02(Sun Mar 01 11:22:07 CET 2020)
(GPL source distribution)
Java Runtime: OpenJDK Runtime Environment
JVM: OpenJDK 64-Bit Server VM
Java Version: 21.0.9+10-Ubuntu-124.04
Operating System: Linux
Default Encoding: UTF-8
Language: en
Country: US
--></g></svg>