<?xml version="1.0" encoding="UTF-8" standalone="no"?><svg xmlns="http://www.w3.org/2000/svg" xmlns:xlink="http://www.w3.org/1999/xlink" contentScriptType="application/ecmascript" contentStyleType="text/css" height="307px" preserveAspectRatio="none" style="width:231px;height:307px;" version="1.1" viewBox="0 0 231 307" width="231px" zoomAndPan="magnify"><defs><filter height="300%" id="f5dfv88kjwc31" width="300%" x="-1" y="-1"><feGaussianBlur result="blurOut" stdDeviation="2.0"/><feColorMatrix in="blurOut" result="blurOut2" type="matrix" values="0 0 0 0 0 0 0 0 0 0 0 0 0 0 0 0 0 0 .4 0"/><feOffset dx="4.0" dy="4.0" in="blurOut2" result="blurOut3"/><feBlend in="SourceGraphic" in2="blurOut3" mode="normal"/></filter></defs><g><line style="stroke: #A80036; stroke-width: 1.0; stroke-dasharray: 5.0,5.0;" x1="30" x2="30" y1="89.0679" y2="217.186"/><line style="stroke: #A80036; stroke-width: 1.0; stroke-dasharray: 5.0,5.0;" x1="140" x2="140" y1="89.0679" y2="217.186"/><text fill="#000000" font-family="sans-serif" font-size="14" lengthAdjust="spacingAndGlyphs" textLength="39" x="8" y="84.9659">Client</text><ellipse cx="30.5" cy="13" fill="#FEFECE" filter="url(#f5dfv88kjwc31)" rx="8" ry="8" style="stroke: #A80036; stroke-width: 2.0;"/><path d="M30.5,21 L30.5,48 M17.5,29 L43.5,29 M30.5,48 L17.5,63 M30.5,48 L43.5,63 " fill="none" filter="url(#f5dfv88kjwc31)" style="stroke: #A80036; stroke-width: 2.0;"/><text fill="#000000" font-family="sans-serif" font-size="14" lengthAdjust="spacingAndGlyphs" textLength="39" x="8" y="231.1519">Client</text><ellipse cx="30.5" cy="245.2539" fill="#FEFECE" filter="url(#f5dfv88kjwc31)" rx="8" ry="8" style="stroke: #A80036; stroke-width: 2.0;"/><path d="M30.5,253.2539 L30.5,280.2539 M17.5,261.2539 L43.5,261.2539 M30.5,280.2539 L17.5,295.2539 M30.5,280.2539 L43.5,295.2539 " fill="none" filter="url(#f5dfv88kjwc31)" style="stroke: #A80036; stroke-width: 2.0;"/><rect fill="#FEFECE" filter="url(#f5dfv88kjwc31)" height="33.0679" style="stroke: #A80036; stroke-width: 1.5;" width="57" x="110" y="51"/><text fill="#000000" font-family="sans-serif" font-size="14" lengthAdjust="spacingAndGlyphs" textLength="43" x="117" y="72.9659">Server</text><rect fill="#FEFECE" filter="url(#f5dfv88kjwc31)" height="33.0679" style="stroke: #A80036; stroke-width: 1.5;" width="57" x="110" y="216.186"/><text fill="#000000" font-family="sans-serif" font-size="14" lengthAdjust="spacingAndGlyphs" textLength="43" x="117" y="238.1519">Server</text><polygon fill="#A80036" points="128.5,118.7739,138.5,122.7739,128.5,126.7739,132.5,122.7739" style="stroke: #A80036; stroke-width: 1.0;"/><line style="stroke: #A80036; stroke-width: 1.0;" x1="30.5" x2="134.5" y1="122.7739" y2="122.7739"/><text fill="#000000" font-family="sans-serif" font-size="13" lengthAdjust="spacingAndGlyphs" textLength="86" x="37.5" y="116.9649">CONNECT TCP</text><line style="stroke: #A80036; stroke-width: 1.0;" x1="140.5" x2="182.5" y1="154.4799" y2="154.4799"/><line style="stroke: #A80036; stroke-width: 1.0;" x1="182.5" x2="182.5" y1="154.4799" y2="167.4799"/><line style="stroke: #A80036; stroke-width: 1.0;" x1="141.5" x2="182.5" y1="167.4799" y2="167.4799"/><polygon fill="#A80036" points="151.5,163.4799,141.5,167.4799,151.5,171.4799,147.5,167.4799" style="stroke: #A80036; stroke-width: 1.0;"/><text fill="#000000" font-family="sans-serif" font-size="13" lengthAdjust="spacingAndGlyphs" textLength="72" x="147.5" y="148.6709">traitement()</text><polygon fill="#A80036" points="41.5,195.186,31.5,199.186,41.5,203.186,37.5,199.186" style="stroke: #A80036; stroke-width: 1.0;"/><line style="stroke: #A80036; stroke-width: 1.0; stroke-dasharray: 2.0,2.0;" x1="35.5" x2="139.5" y1="199.186" y2="199.186"/><text fill="#000000" font-family="sans-serif" font-size="13" lengthAdjust="spacingAndGlyphs" textLength="49" x="47.5" y="193.377">réponse</text><!--MD5=[927a8352913e58ac25aaf10a1d80a3d6]
@startuml
actor Client
Client -> Server : CONNECT TCP
Server -> Server : traitement()
Server - -> Client : réponse
@enduml

PlantUML version 1.2020.02(Sun Mar 01 11:22:07 CET 2020)
(GPL source distribution)
Java Runtime: OpenJDK Runtime Environment
JVM: OpenJDK 64-Bit Server VM
Java Version: 21.0.9+10-Ubuntu-124.04
Operating System: Linux
Default Encoding: UTF-8
Language: en
Country: US
--></g></svg>